<svg xmlns="http://www.w3.org/2000/svg" width="20.001" height="20.001" viewBox="0 0 20.001 20.001">
    <path fill="#ccc" d="M10251-3700a10.012 10.012 0 0 1-10-10 10.014 10.014 0 0 1 10-10 10.012 10.012 0 0 1 10 10 10.01 10.01 0 0 1-10 10zm-.582-9.25h1.161l.86 2.979a.382.382 0 0 0 .368.271.382.382 0 0 0 .368-.271l.86-2.979h1.576a.381.381 0 0 0 .386-.376.38.38 0 0 0-.386-.373h-1.357l.731-2.534a.358.358 0 0 0-.032-.274.381.381 0 0 0-.233-.18.4.4 0 0 0-.1-.013.377.377 0 0 0-.367.271l-.788 2.73h-1.306l-.788-2.73a.367.367 0 0 0-.369-.24.362.362 0 0 0-.367.24l-.788 2.73h-1.306l-.788-2.73a.382.382 0 0 0-.369-.271.394.394 0 0 0-.1.013.375.375 0 0 0-.232.178.353.353 0 0 0-.032.275l.731 2.534h-1.357a.382.382 0 0 0-.389.373.383.383 0 0 0 .389.376h1.573l.86 2.979a.366.366 0 0 0 .368.24.366.366 0 0 0 .368-.24l.86-2.979zm-1.229 1.509l-.435-1.506h.871l-.435 1.506zm3.618 0l-.435-1.506h.873l-.437 1.506zm-1.444-2.258h-.727l.363-1.259.363 1.258z" transform="translate(-10240.999 3720.001)"/>
</svg>
