<svg xmlns="http://www.w3.org/2000/svg" width="20.001" height="19.998" viewBox="0 0 20.001 19.998">
    <g>
        <path fill="#ccc" d="M10189.071-3699a1.819 1.819 0 0 1-1.817-1.817v-.082a1.487 1.487 0 0 0-.982-1.372 1.488 1.488 0 0 0-.606-.129 1.486 1.486 0 0 0-1.047.428l-.054.054a1.8 1.8 0 0 1-1.288.532 1.8 1.8 0 0 1-1.285-.532 1.825 1.825 0 0 1-.532-1.285 1.8 1.8 0 0 1 .532-1.287l.055-.054a1.5 1.5 0 0 0 .3-1.656 1.5 1.5 0 0 0-1.372-.908h-.153a1.821 1.821 0 0 1-1.82-1.817 1.821 1.821 0 0 1 1.82-1.817h.082a1.493 1.493 0 0 0 1.372-.983 1.5 1.5 0 0 0-.3-1.656l-.057-.054a1.836 1.836 0 0 1-.532-1.285 1.839 1.839 0 0 1 .532-1.288 1.812 1.812 0 0 1 1.288-.532 1.816 1.816 0 0 1 1.287.532l.054.054a1.488 1.488 0 0 0 1.05.429 1.5 1.5 0 0 0 .6-.127h.072a1.5 1.5 0 0 0 .911-1.375v-.154A1.819 1.819 0 0 1 10189-3719a1.819 1.819 0 0 1 1.817 1.817v.082a1.5 1.5 0 0 0 .911 1.372 1.488 1.488 0 0 0 .606.129 1.486 1.486 0 0 0 1.047-.428l.054-.054a1.8 1.8 0 0 1 1.288-.535 1.822 1.822 0 0 1 1.284.535 1.821 1.821 0 0 1 .535 1.285 1.8 1.8 0 0 1-.535 1.287l-.054.054a1.485 1.485 0 0 0-.3 1.654v.074a1.5 1.5 0 0 0 1.371.909h.154A1.821 1.821 0 0 1 10199-3709a1.822 1.822 0 0 1-1.819 1.82h-.082a1.5 1.5 0 0 0-1.372.909 1.488 1.488 0 0 0 .3 1.654l.054.056a1.832 1.832 0 0 1 .532 1.285 1.816 1.816 0 0 1-.532 1.288 1.834 1.834 0 0 1-1.287.532 1.834 1.834 0 0 1-1.285-.532l-.057-.056a1.491 1.491 0 0 0-1.049-.426 1.491 1.491 0 0 0-.6.127 1.5 1.5 0 0 0-.908 1.375v.154a1.821 1.821 0 0 1-1.824 1.814zm-.071-13a3 3 0 0 0-3 3 3 3 0 0 0 3 3 3 3 0 0 0 3-3 3 3 0 0 0-3-3z" transform="translate(-0.999 -1.001) translate(-10178 3720)"/>
    </g>
</svg>
